<svg width="32" height="32" viewBox="0 0 32 32" fill="none" xmlns="http://www.w3.org/2000/svg">
<path d="M16 0C7.17762 0 0 7.17762 0 16C0 24.8224 7.17762 32 16 32C24.8224 32 32 24.8224 32 16C31.9994 7.17762 24.8224 0 16 0ZM16 29.4211C8.59948 29.4211 2.57887 23.4005 2.57887 15.9994C2.57887 8.5989 8.59948 2.57829 16 2.57829C23.4005 2.57829 29.4211 8.59948 29.4211 16C29.4211 23.4005 23.4005 29.4211 16 29.4211Z" fill="#0B8D75"/>
<path d="M21.1003 10.898L13.632 18.3669L10.8992 15.6341C10.3959 15.1302 9.5796 15.1302 9.07635 15.6341C8.57253 16.1373 8.57253 16.9537 9.07635 17.4569L12.7209 21.1014C12.9725 21.3531 13.3028 21.4795 13.6326 21.4795C13.9624 21.4795 14.2921 21.3536 14.5437 21.1014L22.9238 12.7214C23.427 12.2176 23.427 11.4018 22.9238 10.898C22.4199 10.3948 21.6042 10.3948 21.1003 10.898Z" fill="#0B8D75"/>
</svg>
