<svg width="24" height="24" viewBox="0 0 24 24" fill="none" xmlns="http://www.w3.org/2000/svg">
<path d="M13.9349 23.8438C13.8349 23.8601 13.7346 23.8751 13.6339 23.8889C13.7346 23.8751 13.8349 23.8601 13.9349 23.8438Z" fill="#4D4848"/>
<path d="M14.1749 23.8028C14.1271 23.8116 14.0793 23.8196 14.0316 23.8279C14.0793 23.8196 14.1271 23.8116 14.1749 23.8028Z" fill="#4D4848"/>
<path d="M13.3658 23.9222C13.2488 23.9354 13.131 23.9471 13.0129 23.957C13.131 23.9471 13.2488 23.9354 13.3658 23.9222Z" fill="#4D4848"/>
<path d="M13.5963 23.894C13.5401 23.9015 13.4835 23.9084 13.4271 23.915C13.4835 23.9084 13.5401 23.9015 13.5963 23.894Z" fill="#4D4848"/>
<path d="M14.5016 23.738C14.4595 23.7469 14.4172 23.7559 14.3749 23.7645C14.4172 23.7559 14.4595 23.7469 14.5016 23.738Z" fill="#4D4848"/>
<path d="M15.3124 23.5366C15.2783 23.5463 15.2443 23.5554 15.2102 23.5649C15.2443 23.5554 15.2783 23.5463 15.3124 23.5366Z" fill="#4D4848"/>
<path d="M15.0672 23.6036C15.0302 23.6133 14.993 23.6232 14.9559 23.6325C14.993 23.6232 15.0302 23.6135 15.0672 23.6036Z" fill="#4D4848"/>
<path d="M14.7464 23.6838C14.7072 23.6929 14.6677 23.7015 14.6281 23.7103C14.6677 23.7015 14.7072 23.6929 14.7464 23.6838Z" fill="#4D4848"/>
<path d="M13.0091 23.9573C12.9459 23.9626 12.8828 23.9674 12.8194 23.9716C12.8828 23.9674 12.9459 23.9626 13.0091 23.9573Z" fill="#4D4848"/>
<path d="M24 12C24 5.3736 18.6264 0 12 0C5.3736 0 0 5.3736 0 12C0 18.6264 5.3736 24 12 24C12.0705 24 12.1406 23.9985 12.2109 23.9973V14.6558H9.63281V11.6512H12.2109V9.44019C12.2109 6.87598 13.7763 5.48035 16.0637 5.48035C17.159 5.48035 18.1005 5.56201 18.375 5.59845V8.27838H16.7977C15.5533 8.27838 15.3124 8.86981 15.3124 9.73755V11.6512H18.2878L17.9 14.6558H15.3124V23.5364C20.3282 22.0984 24 17.4774 24 12Z" fill="#4D4848"/>
<path d="M12.7928 23.9733C12.668 23.9813 12.5425 23.9877 12.4167 23.9919C12.5425 23.9877 12.668 23.9813 12.7928 23.9733Z" fill="#4D4848"/>
<path d="M12.4103 23.9923C12.3441 23.9945 12.2776 23.9962 12.2111 23.9973C12.2776 23.9962 12.3441 23.9945 12.4103 23.9923Z" fill="#4D4848"/>
</svg>
