<svg fill="none" height="32" viewBox="0 0 32 32" width="32" xmlns="http://www.w3.org/2000/svg"><path d="m16.0003 0c-4.5654 0-8.67976 1.93196-11.59752 5.00943-.02068.0178-.04653.02412-.06607.04365-.03102.03103-.04193.07239-.07066.10571-2.63856 2.85457-4.26605 6.65701-4.26605 10.84151 0 8.8222 7.17692 15.9997 15.9997 15.9997 8.8217 0 15.9997-7.1775 15.9997-15.9997.0006-8.82281-7.1775-16.0003-15.9991-16.0003zm-13.42148 15.9997c0-3.0533 1.03693-5.8637 2.76093-8.12192l18.78015 18.78192c-2.2577 1.724-5.0663 2.7609-8.1202 2.7609-7.40038 0-13.42088-6.0211-13.42088-13.4209zm23.43458 8.905-18.9192-18.91752c2.37258-2.11292 5.4868-3.40893 8.9061-3.40893 7.3998 0 13.4209 6.0205 13.4209 13.42145-.0006 3.4193-1.296 6.5341-3.4078 8.905z" fill="#f83d5f"/></svg>